<svg fill="#FFFFFF" xmlns="http://www.w3.org/2000/svg" xmlns:xlink="http://www.w3.org/1999/xlink" version="1.1" x="0px" y="0px" viewBox="0 0 100 100" enable-background="new 0 0 100 100" xml:space="preserve"><g><path d="M69.902,87.088c0,0.965-0.785,1.75-1.75,1.75H31.818c-0.965,0-1.75-0.785-1.75-1.75v-9.005h35.307v-2.5H30.068V12.771   c0-0.965,0.785-1.75,1.75-1.75h36.334c0.965,0,1.75,0.785,1.75,1.75v6.313H34.75v2.5h35.152V28h2.5V12.771   c0-2.343-1.906-4.25-4.25-4.25H31.818c-2.343,0-4.25,1.907-4.25,4.25v74.317c0,2.344,1.907,4.25,4.25,4.25h36.334   c2.344,0,4.25-1.906,4.25-4.25V72.125h-2.5V87.088z"></path><rect x="46.838" y="13.75" width="6.294" height="2.5"></rect><path d="M45.902,83.576c0,2.251,1.832,4.083,4.083,4.083s4.083-1.832,4.083-4.083s-1.832-4.083-4.083-4.083   S45.902,81.325,45.902,83.576z M51.568,83.576c0,0.873-0.71,1.583-1.583,1.583s-1.583-0.71-1.583-1.583s0.71-1.583,1.583-1.583   S51.568,82.703,51.568,83.576z"></path><rect x="16.918" y="44.012" width="2.5" height="3.834"></rect><rect x="16.918" y="52.012" width="2.5" height="3.834"></rect><rect x="20.251" y="48.679" width="3.833" height="2.5"></rect><rect x="12.251" y="48.679" width="3.833" height="2.5"></rect><rect x="81" y="74.827" width="2.5" height="3.833"></rect><rect x="81" y="82.827" width="2.5" height="3.833"></rect><rect x="84.333" y="79.494" width="3.834" height="2.5"></rect><rect x="76.333" y="79.494" width="3.834" height="2.5"></rect><path d="M82.715,34.881v-4.237H35.651v34.334h6.035v4.237H88.75V34.881H82.715z M41.687,62.478h-3.535V33.144h42.063v1.737H41.687   V62.478z M86.25,62.478h-8v2.5h8v1.737H44.187v-1.737h9.274v-2.5h-9.274v-1.561H86.25V62.478z M72.623,46.015l9.448,12.402H62.255   L72.623,46.015z M67.5,47.811c0-3.722,3.028-6.75,6.75-6.75S81,44.089,81,47.811c0,1.31-0.382,2.573-1.081,3.656l-7.206-9.458   l-5.192,6.211C67.512,48.084,67.5,47.949,67.5,47.811z M58.996,58.417H47.993l10.369-12.402l5.246,6.886L58.996,58.417z    M86.25,58.417h-1.036L81.5,53.543c1.29-1.629,2-3.639,2-5.732c0-5.101-4.149-9.25-9.25-9.25S65,42.71,65,47.811   c0,0.987,0.159,1.949,0.461,2.873l-0.21,0.251l-6.8-8.925L44.734,58.417h-0.548V37.381H86.25V58.417z"></path><rect x="57.629" y="62.478" width="16.621" height="2.5"></rect></g></svg>