<?xml version="1.0" standalone="no"?>
<!DOCTYPE svg PUBLIC "-//W3C//DTD SVG 20010904//EN"
 "http://www.w3.org/TR/2001/REC-SVG-20010904/DTD/svg10.dtd">
<svg version="1.0" xmlns="http://www.w3.org/2000/svg"
 width="1200.000000pt" height="1200.000000pt" viewBox="0 0 1200.000000 1200.000000"
 preserveAspectRatio="xMidYMid meet">
<metadata>
Created by potrace 1.11, written by Peter Selinger 2001-2013
</metadata>
<g transform="translate(0.000000,1200.000000) scale(0.100000,-0.100000)"
fill="#000000" stroke="none">
<path d="M5718 11995 c-2 -2 -53 -6 -113 -9 -61 -3 -128 -8 -150 -11 -22 -2
-80 -9 -130 -15 -139 -15 -322 -43 -430 -65 -16 -3 -64 -13 -105 -21 -356 -72
-822 -221 -1175 -377 -154 -68 -567 -283 -680 -354 -122 -77 -342 -220 -360
-235 -5 -5 -59 -45 -120 -89 -94 -70 -238 -182 -255 -199 -3 -3 -32 -27 -65
-55 -182 -152 -455 -420 -631 -620 -487 -552 -867 -1185 -1127 -1875 -48 -125
-138 -397 -152 -456 -3 -10 -20 -79 -39 -152 -29 -111 -47 -189 -82 -357 -8
-42 -45 -272 -50 -315 -3 -25 -7 -56 -9 -70 -3 -14 -7 -54 -10 -90 -3 -36 -8
-76 -10 -90 -27 -154 -26 -863 0 -1085 2 -16 6 -58 10 -92 3 -34 7 -70 9 -80
2 -10 7 -47 11 -83 4 -36 9 -74 11 -85 2 -11 15 -85 30 -165 170 -959 598
-1895 1223 -2675 31 -38 58 -72 61 -75 3 -3 18 -21 34 -40 129 -159 421 -461
591 -611 27 -24 56 -50 65 -58 43 -41 250 -208 355 -288 188 -141 539 -373
565 -373 5 0 10 -4 10 -10 0 -5 4 -10 8 -10 5 0 58 -28 118 -61 157 -89 404
-209 573 -279 80 -34 155 -65 166 -70 143 -63 645 -216 835 -255 8 -2 51 -11
95 -20 44 -9 89 -19 100 -21 11 -2 88 -15 170 -28 140 -23 191 -30 305 -41 25
-3 63 -7 85 -10 227 -27 922 -27 1087 0 23 4 100 12 188 20 79 8 203 28 400
66 379 73 762 188 1130 341 123 51 317 138 370 167 8 4 69 36 135 71 341 180
613 358 940 614 50 39 92 73 95 76 3 3 21 18 40 34 163 133 407 367 569 545
42 47 83 92 92 101 80 85 321 393 440 565 237 340 524 877 642 1200 8 22 36
96 61 164 102 272 212 675 260 956 9 50 18 99 20 110 2 11 7 43 10 70 14 97
17 120 21 145 2 14 7 57 11 95 4 39 8 84 10 100 13 137 18 282 18 530 1 303
-6 450 -30 650 -2 22 -7 63 -10 90 -8 76 -71 441 -89 520 -9 39 -18 77 -20 85
-64 295 -206 720 -350 1045 -464 1046 -1222 1951 -2165 2586 -119 80 -207 137
-257 166 -13 7 -33 19 -45 26 -13 7 -34 19 -48 28 -194 122 -607 319 -895 426
-44 17 -89 34 -100 38 -11 5 -22 9 -25 10 -3 0 -54 17 -115 37 -165 55 -402
122 -501 142 -11 3 -50 11 -89 20 -38 9 -81 18 -95 20 -14 3 -50 9 -80 15
-101 19 -114 21 -245 41 -71 10 -155 21 -185 24 -111 11 -176 17 -230 22 -63
6 -697 14 -702 9z m682 -518 c19 -3 69 -8 110 -11 89 -8 154 -15 195 -21 17
-3 55 -8 85 -11 30 -4 60 -8 65 -9 6 -1 33 -5 60 -9 279 -41 768 -170 1029
-272 13 -5 -48 -29 -200 -79 -215 -71 -499 -173 -561 -201 -17 -8 -34 -14 -38
-14 -4 0 -21 -6 -38 -14 -18 -8 -88 -38 -157 -66 -382 -158 -873 -401 -1164
-576 -49 -30 -90 -54 -92 -54 -2 0 -72 -43 -156 -96 -314 -197 -625 -425 -896
-655 -142 -121 -488 -456 -587 -569 -459 -520 -752 -1012 -941 -1575 -34 -103
-47 -156 -47 -200 -1 -223 265 -339 424 -184 42 41 63 74 73 114 2 6 5 17 9
25 3 8 24 71 47 140 97 289 260 615 435 870 102 149 130 186 211 288 131 165
187 225 379 417 178 178 235 232 330 310 27 22 76 63 109 90 34 28 99 80 146
115 47 36 89 69 95 73 5 5 76 55 157 111 413 290 934 576 1473 811 475 207
1024 395 1631 558 105 28 83 34 259 -71 469 -280 882 -622 1276 -1058 60 -67
221 -266 279 -344 30 -41 57 -77 60 -80 12 -10 150 -219 212 -320 241 -390
443 -837 573 -1265 35 -116 108 -399 119 -460 3 -16 8 -41 11 -55 14 -63 55
-301 60 -350 3 -30 8 -62 10 -70 5 -21 18 -168 16 -183 0 -5 -43 33 -95 85
-925 921 -2002 1655 -3021 2059 -82 33 -159 64 -170 68 -29 13 -183 65 -315
106 -190 60 -485 133 -650 161 -14 2 -41 7 -60 11 -19 3 -44 7 -55 8 -11 1
-39 5 -62 9 -58 9 -98 15 -163 21 -30 3 -71 8 -90 10 -135 17 -496 22 -660 11
-79 -6 -110 -9 -215 -21 -43 -5 -177 -25 -210 -31 -147 -28 -173 -39 -227 -96
-114 -121 -77 -321 73 -398 58 -30 114 -33 239 -11 63 11 140 23 170 27 30 3
63 8 73 10 126 23 611 23 805 -1 23 -3 59 -7 80 -10 85 -10 192 -26 267 -41
44 -8 91 -18 105 -20 14 -3 54 -12 90 -20 36 -9 72 -17 80 -19 124 -26 541
-158 635 -201 17 -7 59 -24 95 -37 193 -72 658 -300 859 -421 51 -31 95 -56
97 -56 5 0 237 -146 334 -210 321 -213 725 -523 1004 -771 255 -226 394 -357
626 -594 233 -236 393 -412 386 -423 -2 -4 -7 -55 -11 -112 -3 -58 -7 -118 -9
-135 -2 -16 -7 -66 -11 -110 -4 -44 -9 -82 -10 -85 -2 -3 -6 -37 -10 -75 -4
-39 -9 -72 -10 -75 -2 -3 -6 -26 -10 -50 -3 -25 -10 -67 -15 -95 -5 -27 -12
-61 -14 -75 -2 -14 -9 -45 -15 -70 -5 -25 -12 -57 -15 -72 -5 -32 -61 -252
-82 -325 -9 -29 -16 -56 -16 -60 -1 -14 -105 -316 -141 -409 -170 -441 -424
-901 -706 -1279 -68 -91 -187 -243 -201 -255 -3 -3 -20 -23 -39 -45 -136 -161
-373 -399 -551 -555 -96 -83 -323 -265 -354 -282 -10 -5 -8 13 6 70 60 250
144 660 173 852 4 25 9 52 10 60 1 8 6 35 10 60 3 25 8 57 11 71 2 14 6 43 9
64 2 22 9 73 14 115 24 183 37 309 46 440 3 41 8 91 10 110 26 236 27 1055 1
1310 -2 19 -7 71 -11 114 -4 43 -8 87 -10 98 -2 10 -6 44 -10 76 -3 31 -7 73
-10 92 -3 19 -7 55 -10 80 -2 25 -7 56 -10 70 -2 14 -7 41 -10 60 -5 32 -16
94 -30 175 -2 17 -7 39 -9 50 -3 11 -14 63 -25 116 -138 658 -396 1286 -729
1774 -154 225 -364 470 -434 506 -48 25 -140 30 -194 12 -92 -31 -161 -120
-171 -218 -10 -99 12 -137 216 -370 83 -95 240 -325 338 -495 206 -357 395
-860 488 -1300 9 -41 18 -84 21 -95 2 -11 6 -31 9 -45 3 -14 7 -34 9 -45 2
-11 11 -67 20 -125 9 -58 21 -130 26 -160 5 -30 12 -84 15 -120 3 -36 7 -75 9
-86 3 -12 7 -61 11 -110 4 -49 8 -105 10 -124 22 -223 22 -832 0 -1080 -1 -19
-6 -75 -9 -125 -8 -104 -12 -150 -20 -222 -3 -29 -8 -77 -11 -105 -3 -29 -7
-64 -10 -78 -2 -14 -7 -50 -11 -80 -9 -82 -20 -160 -30 -212 -1 -9 -6 -38 -10
-65 -3 -26 -8 -57 -10 -68 -2 -11 -9 -47 -14 -80 -5 -33 -12 -70 -14 -81 -2
-12 -7 -37 -10 -55 -3 -19 -19 -97 -35 -174 -16 -77 -32 -151 -35 -165 -34
-180 -221 -888 -238 -906 -5 -5 -223 -112 -288 -142 -379 -172 -810 -313
-1185 -387 -81 -16 -195 -36 -235 -41 -25 -3 -47 -8 -50 -9 -3 -2 -37 -7 -75
-10 -39 -4 -73 -9 -76 -10 -3 -2 -41 -7 -84 -10 -43 -4 -86 -8 -96 -10 -131
-25 -904 -26 -1036 -1 -10 2 -54 7 -98 10 -44 4 -87 9 -95 11 -8 2 -37 7 -64
10 -79 9 -234 35 -337 56 -52 11 -104 21 -115 23 -10 2 -38 9 -61 15 -22 6
-61 15 -84 20 -119 24 -599 177 -599 190 0 3 82 34 182 69 388 135 842 328
1238 526 124 62 243 123 265 136 22 12 65 36 95 53 167 90 421 245 625 380
893 593 1566 1279 2009 2047 59 103 198 395 249 525 48 120 120 339 132 398 2
10 7 26 9 35 36 114 -25 244 -139 298 -112 53 -251 14 -318 -89 -14 -21 -35
-74 -47 -118 -172 -640 -553 -1267 -1107 -1824 -114 -114 -252 -244 -338 -316
-22 -19 -42 -36 -45 -39 -3 -3 -27 -24 -55 -45 -27 -22 -59 -48 -70 -58 -97
-88 -447 -334 -742 -523 -216 -138 -791 -442 -1058 -558 -60 -27 -134 -60
-164 -73 -323 -145 -803 -317 -1335 -478 l-88 -26 -117 67 c-254 146 -591 384
-781 550 -14 12 -50 44 -80 70 -64 56 -150 137 -264 250 -293 293 -583 667
-798 1029 -101 172 -115 196 -203 373 -171 342 -283 646 -405 1092 -15 57 -58
251 -70 315 -5 33 -12 69 -14 80 -2 11 -7 42 -10 68 -4 27 -9 56 -11 65 -1 10
-6 40 -9 67 -4 28 -9 64 -11 80 -3 17 -7 53 -10 80 -3 28 -8 73 -11 102 l-6
52 238 -237 c266 -263 364 -356 548 -515 12 -10 35 -31 51 -45 37 -33 243
-203 310 -257 28 -21 52 -42 55 -45 13 -15 400 -297 525 -382 378 -258 806
-500 1180 -668 88 -39 169 -76 180 -81 220 -99 777 -279 1002 -323 10 -2 52
-11 93 -20 41 -8 104 -20 140 -25 36 -6 74 -13 85 -15 11 -2 63 -9 115 -15 52
-7 110 -14 129 -17 132 -18 504 -24 720 -11 68 4 127 9 130 11 3 2 37 7 75 11
114 11 217 34 252 56 79 48 125 130 125 221 1 136 -109 251 -241 251 -47 1
-151 -11 -250 -28 -146 -26 -650 -26 -840 -1 -14 2 -52 7 -85 11 -33 4 -69 9
-80 11 -11 2 -49 9 -85 15 -52 8 -232 45 -310 63 -620 147 -1339 479 -1995
924 -152 103 -421 297 -451 326 -7 6 -24 20 -40 31 -35 25 -297 239 -344 281
-19 17 -98 87 -175 155 -137 120 -597 574 -725 715 -137 149 -220 242 -279
311 l-62 72 6 88 c3 48 8 104 10 123 2 19 7 67 11 105 3 39 8 77 9 86 2 9 6
40 10 70 3 30 10 77 15 104 5 28 12 68 15 90 9 64 53 271 80 380 14 55 28 110
30 123 7 29 98 320 124 392 200 573 524 1147 920 1630 52 63 108 130 125 149
110 121 262 278 372 382 131 123 473 404 482 395 3 -3 -12 -66 -51 -216 -51
-194 -138 -585 -163 -730 -3 -14 -9 -52 -15 -85 -6 -33 -12 -71 -15 -85 -2
-14 -7 -41 -10 -60 -3 -19 -9 -60 -14 -90 -10 -62 -13 -79 -34 -240 -8 -63
-18 -140 -21 -170 -3 -30 -8 -73 -10 -95 -7 -55 -13 -118 -20 -227 -4 -51 -9
-109 -11 -128 -22 -215 -22 -905 0 -1150 2 -19 7 -74 10 -122 4 -48 9 -98 11
-110 2 -13 6 -54 10 -93 4 -38 8 -72 10 -75 2 -3 6 -34 9 -69 4 -35 8 -67 10
-70 2 -3 7 -33 10 -66 4 -33 9 -67 11 -75 5 -17 13 -60 21 -110 17 -106 104
-467 146 -600 113 -364 270 -733 428 -1005 126 -217 332 -504 445 -619 80 -81
175 -105 277 -70 129 43 202 211 147 334 -16 35 -72 116 -99 140 -41 39 -229
301 -307 430 -267 440 -471 1004 -568 1570 -21 121 -35 214 -41 271 -3 30 -7
65 -9 78 -3 14 -7 54 -10 90 -4 36 -8 82 -10 101 -26 224 -27 986 0 1240 2 19
6 68 9 108 4 41 8 90 10 110 3 20 7 64 11 97 3 33 8 71 10 85 9 61 25 179 30
218 3 24 7 53 10 65 3 12 7 38 9 57 28 236 175 894 287 1282 67 233 149 491
160 504 12 14 261 138 359 179 36 14 83 34 105 44 159 73 662 236 819 267 11
2 74 15 140 29 181 39 172 37 261 50 22 3 47 7 55 10 8 2 40 7 70 10 30 3 66
8 80 10 14 2 57 7 95 11 39 4 84 8 100 10 17 1 75 5 130 9 55 4 102 8 104 10
5 5 637 -3 681 -8z"/>
</g>
</svg>
