<svg fill="#86BBD8" xmlns:x="http://ns.adobe.com/Extensibility/1.0/" xmlns:i="http://ns.adobe.com/AdobeIllustrator/10.0/" xmlns:graph="http://ns.adobe.com/Graphs/1.0/" xmlns="http://www.w3.org/2000/svg" xmlns:xlink="http://www.w3.org/1999/xlink" xmlns:a="http://ns.adobe.com/AdobeSVGViewerExtensions/3.0/" version="1.1" x="0px" y="0px" viewBox="0 0 100 100" enable-background="new 0 0 100 100" xml:space="preserve"><g><path d="M92.7,35c-13.7-3.4-28.1-3.4-41.8-0.1h-1.8C35.4,31.6,21,31.6,7.3,35c-1,0.3-1.6,1.3-1.5,2.3c0,0,0,0.1,0,0.1v9.7   c0,0,0,0.1,0,0.1c0,0.1,0,0.1,0,0.2c0,0,0,0,0,0s0,0,0,0c0,0.1,0,0.1,0,0.2c0,0.1,0,0.2,0,0.2c0,0.1,0,0.1,0.1,0.2   C6,48,6,48,6,48.1c0,0.1,0.1,0.1,0.1,0.2c0,0.1,0.1,0.1,0.1,0.2c0.1,0.1,0.1,0.1,0.2,0.2c0,0,0,0,0.1,0.1c0.4,0.4,0.9,0.6,1.4,0.6   l0,0l0,0c0,0,0,0,0.1,0c1.5,0,3.4,0.1,4.1,0.4c0,0.1,0.1,0.3,0.1,0.5c0.1,0.6,0.3,1.3,0.4,2c1.1,5.6,2.3,10.7,5.4,12.8   c2.5,1.7,7.3,2.7,12.1,2.7c4.3,0,8.6-0.8,11.1-2.6c3.9-2.9,6.1-10.7,6.3-11.7c0.2-0.7,1.1-3.2,2.6-4c1.5,0.7,2.5,3.2,2.7,4.1   c0.2,0.9,2.4,8.7,6.3,11.6c2.4,1.8,6.7,2.6,11.1,2.6c4.8,0,9.6-1,12.1-2.7c1.1-0.7,1.9-1.9,2.6-3.3c1.2-2.5,2-5.9,2.7-9.4   c0.2-0.9,0.4-2,0.5-2.5c0.7-0.3,2.5-0.4,4.1-0.4c0,0,0,0,0.1,0c1.1,0,2-0.9,2-1.9c0,0,0,0,0,0s0,0,0,0c0-0.1,0-0.1,0-0.2   c0,0,0-0.1,0-0.1v-9.7c0,0,0-0.1,0-0.1C94.3,36.3,93.7,35.3,92.7,35z M61.4,61.8c-2.1-1.6-4.1-6.6-4.8-9.4   c-0.1-0.6-1.6-6.1-6.1-7.2c0,0-0.1,0-0.1,0c-0.1,0-0.1,0-0.2,0c-0.1,0-0.1,0-0.2,0c-0.1,0-0.1,0-0.2,0c-0.1,0-0.1,0-0.2,0   c0,0-0.1,0-0.1,0c-4.5,1.1-5.9,6.5-6.1,7.1c-0.8,2.8-2.7,7.9-4.8,9.4c-3.3,2.5-14.7,2.4-18.5-0.1c0,0,0,0,0,0   c-1.9-1.3-3.1-7.3-3.7-10.2c-0.2-0.9-0.3-1.6-0.4-2.1c-0.2-0.9-0.4-1.5-0.7-1.9c-0.9-1.4-3.2-1.9-5.5-2v-6.8   c12.6-2.9,25.9-2.8,38.5,0.4c0,0,0,0,0,0c0.1,0,0.1,0,0.2,0c0.1,0,0.1,0,0.2,0c0,0,0,0,0,0h2.3c0,0,0,0,0,0c0.1,0,0.1,0,0.2,0   c0.1,0,0.1,0,0.2,0c0,0,0,0,0,0c12.6-3.2,25.9-3.3,38.5-0.4v6.8c-2.3,0.1-4.5,0.6-5.5,2c-0.5,0.7-0.7,1.7-1.1,4   c-0.4,1.8-1,4.9-1.8,7.2c-0.5,1.4-1.1,2.6-1.8,3c0,0,0,0,0,0C76.1,64.2,64.7,64.3,61.4,61.8z"></path><path d="M42.6,42.1c-2.9-2.5-6.7-3.8-11.4-3.8c-6.7,0-12.8,2.6-13.1,2.7c-0.7,0.3-1.2,1-1.2,1.8c0,0.4-0.1,9.9,4.9,15   c2.1,2.1,4.7,3.2,7.8,3.2c2.1,0,4.5-0.5,7-1.5c6.8-2.8,6.6-14.6,6.6-15.9C43.3,43,43.1,42.4,42.6,42.1z M35.2,55.7   c-4.6,1.9-8.1,1.7-10.5-0.7c-2.9-2.9-3.6-8.3-3.7-10.8c2-0.7,6.1-1.9,10.2-1.9c3.3,0,6,0.8,8,2.2C39.3,47.8,38.5,54.4,35.2,55.7z"></path><path d="M83,42.8c0-0.8-0.5-1.5-1.2-1.8c-0.3-0.1-6.4-2.7-13.1-2.7c-4.7,0-8.5,1.3-11.4,3.8c-0.4,0.4-0.7,0.9-0.7,1.4   c0,1.3-0.2,13.2,6.6,15.9c2.5,1,4.9,1.5,7,1.5c3.1,0,5.7-1.1,7.8-3.2C83.1,52.7,83,43.2,83,42.8z M64.8,55.7   c-3.3-1.3-4-7.9-4.1-11.2c2-1.5,4.7-2.2,8-2.2c4.2,0,8.3,1.2,10.3,1.9c-0.2,2.9-1,8-3.7,10.7C72.9,57.4,69.4,57.6,64.8,55.7z"></path><path d="M12,40.1c-0.4,0.4-0.6,0.9-0.6,1.4c0,0.5,0.2,1,0.6,1.4c0.4,0.4,0.9,0.6,1.4,0.6c0.5,0,1-0.2,1.4-0.6   c0.4-0.4,0.6-0.9,0.6-1.4c0-0.5-0.2-1-0.6-1.4C14.1,39.3,12.8,39.3,12,40.1z"></path><path d="M86.6,43.5c0.5,0,1-0.2,1.4-0.6c0.4-0.4,0.6-0.9,0.6-1.4c0-0.5-0.2-1-0.6-1.4c-0.7-0.7-2.1-0.8-2.8,0   c-0.4,0.4-0.6,0.9-0.6,1.4c0,0.5,0.2,1,0.6,1.4S86.1,43.5,86.6,43.5z"></path></g></svg>